# xmcd
#
# Track frame offsets: 
#        150
#        11825
#        30068
#        47388
#        62260
#        78275
#        104750
#        129298
#        145033
#        161315
#        171675
#        189845
#        206613
#        223663
#        237488
#        261635
#        281598
#        293743
#        320693
#
# Disc length: 4735 seconds
#
# Revision: 1
# Processed by: cddbd v1.5.2PL0 Copyright (c) Steve Scherf et al.
# Submitted via: ExactAudioCopy v0.99pb4
#
DISCID=0f127d13
DTITLE=Various Artist - The Famous Charisma Box - Volume Four
DYEAR=1993
DGENRE=Compilation
TTITLE0=Michael Nyman - Chasing Sheep Is Best Left To Shepherds
TTITLE1=Gregory Isaacs - Front Door
TTITLE2=Congo Ashanti Roy - Cloudy Day
TTITLE3=Prince Far I - Put It Out
TTITLE4=Desperadoes - Don't Leave Me This Way
TTITLE5=G. T. Moore - Move It On Up
TTITLE6=The Rock Steady Crew - Hey You (The Rock Steady Crew)
TTITLE7=World's Famous Supreme Team - Hey DJ
TTITLE8=Robert King - Paper Heart
TTITLE9=Delta 5 - Anticipation
TTITLE10=Scars - All About You
TTITLE11=The Monochrome Set - Ten Don'ts For Honeymooners
TTITLE12=The Creation - Making Time '85
TTITLE13=Keith Emerson - Freedom Jazz Dance
TTITLE14=Link Wray - It's All Over Now Baby Blue
TTITLE15=Howard Werth and The Moonbeams - The Embezzler
TTITLE16=Bert Jansch - Kittiwake
TTITLE17=Julian Lennon - Too Late For Goodbyes
TTITLE18=Nik Turner - God Rock
EXTD=
EXTT0=
EXTT1=
EXTT2=
EXTT3=
EXTT4=
EXTT5=
EXTT6=
EXTT7=
EXTT8=
EXTT9=
EXTT10=
EXTT11=
EXTT12=
EXTT13=
EXTT14=
EXTT15=
EXTT16=
EXTT17=
EXTT18=
PLAYORDER=
